<svg xmlns="http://www.w3.org/2000/svg" xmlns:xlink="http://www.w3.org/1999/xlink" xmlns:s="https://github.com/nturley/netlistsvg" width="314" height="220">
  <style>svg {
    stroke:#000;
    fill:none;
  }
  text {
    fill:#000;
    stroke:none;
    font-size:10px;
    font-weight: bold;
    font-family: "Courier New", monospace;
  }
  .nodelabel {
    text-anchor: middle;
  }
  .inputPortLabel {
    text-anchor: end;
  }
  .splitjoinBody {
    fill:#000;
  }</style>
  <g s:type="add" transform="translate(80.33333333333333,12)" s:width="25" s:height="25" id="cell_$add$dut.v:11$2">
    <s:alias val="$add"/>
    <circle r="12.5" cx="12.5" cy="12.5" class="cell_$add$dut.v:11$2"/>
    <line x1="7.5" x2="17.5" y1="12.5" y2="12.5" class="cell_$add$dut.v:11$2"/>
    <line x1="12.5" x2="12.5" y1="7.5" y2="17.5" class="cell_$add$dut.v:11$2"/>
    <g s:x="3" s:y="5" s:pid="A"/>
    <g s:x="3" s:y="20" s:pid="B"/>
    <g s:x="25" s:y="12.5" s:pid="Y"/>
  </g>
  <g s:type="dff" transform="translate(207,24.5)" s:width="30" s:height="40" id="cell_$procdff$6">
    <s:alias val="$dff"/>
    <s:alias val="$_DFF_"/>
    <s:alias val="$_DFF_P_"/>
    <rect width="30" height="40" x="0" y="0" class="cell_$procdff$6"/>
    <path d="M0,35 L5,30 L0,25" class="cell_$procdff$6"/>
    <g s:x="30" s:y="10" s:pid="Q"/>
    <g s:x="0" s:y="30" s:pid="CLK"/>
    <g s:x="0" s:y="30" s:pid="C"/>
    <g s:x="0" s:y="10" s:pid="D"/>
  </g>
  <g s:type="mux" transform="translate(145.33333333333334,14.5)" s:width="20" s:height="40" id="cell_$procmux$4">
    <s:alias val="$pmux"/>
    <s:alias val="$mux"/>
    <s:alias val="$_MUX_"/>
    <path d="M0,0 L20,10 L20,30 L0,40 Z" class="cell_$procmux$4"/>
    <g s:x="0" s:y="10" s:pid="A"/>
    <g s:x="0" s:y="30" s:pid="B"/>
    <g s:x="10" s:y="35" s:pid="S"/>
    <g s:x="20" s:y="20" s:pid="Y"/>
  </g>
  <g s:type="inputExt" transform="translate(142,177)" s:width="30" s:height="20" id="cell_clk">
    <text x="15" y="-4" class="nodelabel cell_clk" s:attribute="ref">clk</text>
    <s:alias val="$_inputExt_"/>
    <path d="M0,0 L0,20 L15,20 L30,10 L15,0 Z" class="cell_clk"/>
    <g s:x="28" s:y="10" s:pid="Y"/>
  </g>
  <g s:type="inputExt" transform="translate(77,147)" s:width="30" s:height="20" id="cell_rst">
    <text x="15" y="-4" class="nodelabel cell_rst" s:attribute="ref">rst</text>
    <s:alias val="$_inputExt_"/>
    <path d="M0,0 L0,20 L15,20 L30,10 L15,0 Z" class="cell_rst"/>
    <g s:x="28" s:y="10" s:pid="Y"/>
  </g>
  <g s:type="outputExt" transform="translate(272,24.5)" s:width="30" s:height="20" id="cell_count">
    <text x="15" y="-4" class="nodelabel cell_count" s:attribute="ref">count</text>
    <s:alias val="$_outputExt_"/>
    <path d="M30,0 L30,20 L15,20 L0,10 L15,0 Z" class="cell_count"/>
    <g s:x="0" s:y="10" s:pid="A"/>
  </g>
  <g s:type="constant" transform="translate(12,22)" s:width="30" s:height="20" id="cell_1">
    <text x="15" y="-4" class="nodelabel cell_1" s:attribute="ref">1</text>
    <s:alias val="$_constant_"/>
    <rect width="30" height="20" class="cell_1"/>
    <g s:x="30" s:y="10" s:pid="Y"/>
  </g>
  <g s:type="constant" transform="translate(77,82)" s:width="30" s:height="20" id="cell_0000">
    <text x="15" y="-4" class="nodelabel cell_0000" s:attribute="ref">0x0</text>
    <s:alias val="$_constant_"/>
    <rect width="30" height="20" class="cell_0000"/>
    <g s:x="30" s:y="10" s:pid="Y"/>
  </g>
  <line x1="237" x2="247" y1="34.5" y2="34.5" class="net_4,5,6,7"/>
  <line x1="247" x2="247" y1="34.5" y2="207" class="net_4,5,6,7"/>
  <line x1="247" x2="52" y1="207" y2="207" class="net_4,5,6,7"/>
  <line x1="52" x2="52" y1="207" y2="17" class="net_4,5,6,7"/>
  <circle cx="247" cy="34.5" r="2" style="fill:#000" class="net_4,5,6,7"/>
  <line x1="52" x2="83.33333333333333" y1="17" y2="17" class="net_4,5,6,7"/>
  <line x1="237" x2="272" y1="34.5" y2="34.5" class="net_4,5,6,7"/>
  <line x1="42" x2="83.33333333333333" y1="32" y2="32" class="net_16"/>
  <line x1="170" x2="182" y1="187" y2="187" class="net_2"/>
  <line x1="182" x2="182" y1="187" y2="54.5" class="net_2"/>
  <line x1="182" x2="207" y1="54.5" y2="54.5" class="net_2"/>
  <line x1="165.33333333333334" x2="207" y1="34.5" y2="34.5" class="net_12,13,14,15"/>
  <line x1="105.33333333333333" x2="145.33333333333334" y1="24.5" y2="24.5" class="net_8,9,10,11"/>
  <line x1="107" x2="117" y1="92" y2="92" class="net_17,18,19,20"/>
  <line x1="117" x2="117" y1="92" y2="44.5" class="net_17,18,19,20"/>
  <line x1="117" x2="145.33333333333334" y1="44.5" y2="44.5" class="net_17,18,19,20"/>
  <line x1="105" x2="155.33333333333334" y1="157" y2="157" class="net_3"/>
  <line x1="155.33333333333334" x2="155.33333333333334" y1="157" y2="49.5" class="net_3"/>
</svg>
